<svg width="24" height="12" viewBox="0 0 24 12" fill="none" xmlns="http://www.w3.org/2000/svg">
<path d="M4.15625 11.8516H16.6328C17.2995 11.8516 17.9089 11.7969 18.4609 11.6875C19.013 11.5781 19.487 11.3255 19.8828 10.9297C20.2839 10.5286 20.5365 10.0547 20.6406 9.50781C20.7448 8.96094 20.7969 8.35156 20.7969 7.67969V5.03906C20.7969 4.3724 20.7448 3.76562 20.6406 3.21875C20.5365 2.67188 20.2839 2.19792 19.8828 1.79688C19.4818 1.40104 19.0052 1.14844 18.4531 1.03906C17.9062 0.929688 17.2995 0.875 16.6328 0.875H4.14062C3.48438 0.875 2.88021 0.929688 2.32812 1.03906C1.78125 1.14844 1.30729 1.40365 0.90625 1.80469C0.510417 2.20052 0.257812 2.67188 0.148438 3.21875C0.0442708 3.76562 -0.0078125 4.36719 -0.0078125 5.02344V7.67969C-0.0078125 8.35156 0.0442708 8.96094 0.148438 9.50781C0.252604 10.0547 0.505208 10.5286 0.90625 10.9297C1.30729 11.3255 1.78125 11.5781 2.32812 11.6875C2.88021 11.7969 3.48958 11.8516 4.15625 11.8516ZM3.94531 10.5938C3.54427 10.5938 3.14844 10.5547 2.75781 10.4766C2.3724 10.3984 2.0599 10.2422 1.82031 10.0078C1.58594 9.77344 1.43229 9.46354 1.35938 9.07812C1.28646 8.69271 1.25 8.29948 1.25 7.89844V4.85156C1.25 4.4401 1.28646 4.04167 1.35938 3.65625C1.43229 3.26562 1.58594 2.95052 1.82031 2.71094C2.05469 2.47656 2.36719 2.32292 2.75781 2.25C3.15365 2.17188 3.55729 2.13281 3.96875 2.13281H16.8438C17.2448 2.13281 17.638 2.17188 18.0234 2.25C18.4141 2.32292 18.7292 2.47917 18.9688 2.71875C19.2031 2.95312 19.3568 3.26302 19.4297 3.64844C19.5026 4.03385 19.5391 4.42708 19.5391 4.82812V7.89844C19.5391 8.29948 19.5026 8.69271 19.4297 9.07812C19.3568 9.46354 19.2031 9.77344 18.9688 10.0078C18.7292 10.2474 18.4141 10.4062 18.0234 10.4844C17.638 10.5573 17.2448 10.5938 16.8438 10.5938H3.94531ZM21.8594 8.38281C22.0677 8.36719 22.2839 8.27604 22.5078 8.10938C22.7318 7.9375 22.9219 7.70312 23.0781 7.40625C23.2344 7.10938 23.3125 6.76042 23.3125 6.35938C23.3125 5.96354 23.2344 5.61719 23.0781 5.32031C22.9219 5.02344 22.7318 4.78906 22.5078 4.61719C22.2839 4.44531 22.0677 4.35417 21.8594 4.34375V8.38281ZM3.63281 9.60156H17.1641C17.4349 9.60156 17.6536 9.58073 17.8203 9.53906C17.987 9.4974 18.1302 9.41927 18.25 9.30469C18.3646 9.1901 18.4427 9.04948 18.4844 8.88281C18.5312 8.71094 18.5547 8.48958 18.5547 8.21875V4.50781C18.5547 4.23698 18.5312 4.01823 18.4844 3.85156C18.4427 3.67969 18.3646 3.53646 18.25 3.42188C18.1302 3.30208 17.987 3.22396 17.8203 3.1875C17.6536 3.14583 17.4349 3.125 17.1641 3.125H3.63281C3.35677 3.125 3.13542 3.14583 2.96875 3.1875C2.80208 3.22396 2.66146 3.30208 2.54688 3.42188C2.43229 3.53646 2.35156 3.67969 2.30469 3.85156C2.26302 4.01823 2.24219 4.23698 2.24219 4.50781V8.21875C2.24219 8.48958 2.26302 8.71094 2.30469 8.88281C2.35156 9.04948 2.43229 9.1901 2.54688 9.30469C2.66667 9.41927 2.80729 9.4974 2.96875 9.53906C3.13542 9.58073 3.35677 9.60156 3.63281 9.60156Z" fill="#191919" fill-opacity="0.9"/>
</svg>
