<svg width="16" height="16" viewBox="0 0 16 16" fill="none" xmlns="http://www.w3.org/2000/svg">
<path d="M6.80469 11.5234C7.45052 11.5234 8.05729 11.401 8.625 11.1562C9.19271 10.9115 9.69271 10.5729 10.125 10.1406C10.5573 9.70312 10.8958 9.20052 11.1406 8.63281C11.3906 8.0651 11.5156 7.45833 11.5156 6.8125C11.5156 6.16667 11.3906 5.5599 11.1406 4.99219C10.8958 4.42448 10.5573 3.92448 10.125 3.49219C9.69271 3.0599 9.19271 2.72135 8.625 2.47656C8.05729 2.22656 7.45052 2.10156 6.80469 2.10156C6.15885 2.10156 5.55208 2.22656 4.98438 2.47656C4.41667 2.72135 3.91406 3.0599 3.47656 3.49219C3.04427 3.92448 2.70573 4.42448 2.46094 4.99219C2.21615 5.5599 2.09375 6.16667 2.09375 6.8125C2.09375 7.45833 2.21615 8.0651 2.46094 8.63281C2.70573 9.20052 3.04427 9.70312 3.47656 10.1406C3.91406 10.5729 4.41667 10.9115 4.98438 11.1562C5.55208 11.401 6.15885 11.5234 6.80469 11.5234ZM6.80469 12.8203C5.97656 12.8203 5.20052 12.6641 4.47656 12.3516C3.7526 12.0391 3.11458 11.6068 2.5625 11.0547C2.01042 10.5026 1.57812 9.86458 1.26562 9.14062C0.953125 8.41667 0.796875 7.64062 0.796875 6.8125C0.796875 5.98438 0.953125 5.20833 1.26562 4.48438C1.57812 3.75521 2.01042 3.11719 2.5625 2.57031C3.11458 2.01823 3.7526 1.58594 4.47656 1.27344C5.20573 0.960938 5.98177 0.804688 6.80469 0.804688C7.63281 0.804688 8.40885 0.960938 9.13281 1.27344C9.85677 1.58594 10.4948 2.01823 11.0469 2.57031C11.599 3.1224 12.0312 3.76042 12.3438 4.48438C12.6562 5.20833 12.8125 5.98438 12.8125 6.8125C12.8125 7.64062 12.6562 8.41667 12.3438 9.14062C12.0312 9.86458 11.599 10.5026 11.0469 11.0547C10.4948 11.6068 9.85677 12.0391 9.13281 12.3516C8.40885 12.6641 7.63281 12.8203 6.80469 12.8203ZM14.6406 15.6562C14.5208 15.6562 14.4062 15.6354 14.2969 15.5938C14.1875 15.5521 14.0885 15.487 14 15.3984L9.85156 11.25L11.1328 10.0078L15.2578 14.1406C15.3464 14.224 15.4089 14.3203 15.4453 14.4297C15.487 14.5391 15.5078 14.651 15.5078 14.7656C15.5078 14.9323 15.4688 15.0807 15.3906 15.2109C15.3177 15.3464 15.2161 15.4531 15.0859 15.5312C14.9557 15.6146 14.8073 15.6562 14.6406 15.6562Z" fill="#191919" fill-opacity="0.9"/>
</svg>
