<svg width="13" height="16" viewBox="0 0 13 16" fill="none" xmlns="http://www.w3.org/2000/svg">
<path d="M3.33594 15.7266H9.00781C9.6276 15.7266 10.1901 15.5911 10.6953 15.3203C11.2005 15.0547 11.6016 14.6797 11.8984 14.1953C12.2005 13.7161 12.3516 13.1562 12.3516 12.5156C12.3516 11.875 12.2005 11.3151 11.8984 10.8359C11.6016 10.3516 11.2005 9.97656 10.6953 9.71094C10.1901 9.4401 9.6276 9.30469 9.00781 9.30469H3.33594C2.71615 9.30469 2.15365 9.4401 1.64844 9.71094C1.14323 9.97656 0.739583 10.3516 0.4375 10.8359C0.140625 11.3151 -0.0078125 11.875 -0.0078125 12.5156C-0.0078125 13.1562 0.140625 13.7161 0.4375 14.1953C0.739583 14.6797 1.14323 15.0547 1.64844 15.3203C2.15365 15.5911 2.71615 15.7266 3.33594 15.7266ZM9.21094 14.5469C8.83594 14.5417 8.49479 14.4479 8.1875 14.2656C7.88021 14.0833 7.63542 13.8385 7.45312 13.5312C7.27604 13.224 7.1875 12.8828 7.1875 12.5078C7.1875 12.138 7.27604 11.7995 7.45312 11.4922C7.63542 11.1849 7.88021 10.9401 8.1875 10.7578C8.49479 10.5755 8.83594 10.4844 9.21094 10.4844C9.58594 10.4844 9.92708 10.5755 10.2344 10.7578C10.5469 10.9401 10.7943 11.1849 10.9766 11.4922C11.1589 11.7943 11.2474 12.1302 11.2422 12.5C11.2422 12.875 11.1484 13.2188 10.9609 13.5312C10.7786 13.8438 10.5339 14.0911 10.2266 14.2734C9.92448 14.4557 9.58594 14.5469 9.21094 14.5469ZM3.65625 8.10156H8.69531C9.36198 8.10156 9.97135 7.95312 10.5234 7.65625C11.0807 7.35938 11.5234 6.94271 11.8516 6.40625C12.1849 5.86979 12.3516 5.2474 12.3516 4.53906C12.3516 3.83073 12.1849 3.20833 11.8516 2.67188C11.5234 2.13542 11.0807 1.71875 10.5234 1.42188C9.97135 1.125 9.36198 0.976562 8.69531 0.976562H3.65625C2.98438 0.976562 2.36979 1.125 1.8125 1.42188C1.26042 1.71875 0.817708 2.13542 0.484375 2.67188C0.15625 3.20833 -0.0078125 3.83073 -0.0078125 4.53906C-0.0078125 5.2474 0.15625 5.86979 0.484375 6.40625C0.817708 6.94271 1.26042 7.35938 1.8125 7.65625C2.36979 7.95312 2.98438 8.10156 3.65625 8.10156ZM3.65625 6.92188C3.21875 6.92188 2.8099 6.82292 2.42969 6.625C2.05469 6.42188 1.75 6.14323 1.51562 5.78906C1.28646 5.42969 1.17188 5.01302 1.17188 4.53906C1.17188 4.0651 1.28646 3.65104 1.51562 3.29688C1.75 2.9375 2.05469 2.65885 2.42969 2.46094C2.8099 2.25781 3.21875 2.15625 3.65625 2.15625H8.69531C9.1276 2.15625 9.53125 2.25781 9.90625 2.46094C10.2865 2.65885 10.5911 2.9375 10.8203 3.29688C11.0547 3.65104 11.1719 4.0651 11.1719 4.53906C11.1719 5.01302 11.0547 5.42969 10.8203 5.78906C10.5911 6.14323 10.2865 6.42188 9.90625 6.625C9.53125 6.82292 9.1276 6.92188 8.69531 6.92188H3.65625ZM3.65625 6.39062C4 6.39583 4.3099 6.3151 4.58594 6.14844C4.86719 5.97656 5.09115 5.75 5.25781 5.46875C5.42969 5.18229 5.51562 4.86719 5.51562 4.52344C5.52083 4.17969 5.4401 3.86979 5.27344 3.59375C5.10677 3.3125 4.88021 3.09115 4.59375 2.92969C4.3125 2.76302 4 2.67969 3.65625 2.67969C3.3125 2.67969 3 2.76302 2.71875 2.92969C2.4375 3.09635 2.21354 3.32031 2.04688 3.60156C1.88542 3.88281 1.80469 4.19271 1.80469 4.53125C1.80469 4.875 1.88542 5.1875 2.04688 5.46875C2.21354 5.75 2.4375 5.97396 2.71875 6.14062C3 6.30729 3.3125 6.39062 3.65625 6.39062Z" fill="#191919" fill-opacity="0.9"/>
</svg>
