<svg width="18" height="13" viewBox="0 0 18 13" fill="none" xmlns="http://www.w3.org/2000/svg">
<path d="M8.64844 12.4922C8.73177 12.4922 8.8151 12.4661 8.89844 12.4141C8.98698 12.362 9.10417 12.2656 9.25 12.125L11.0781 10.3672C11.1406 10.3099 11.1745 10.2448 11.1797 10.1719C11.1901 10.0938 11.1693 10.0208 11.1172 9.95312C10.8724 9.63542 10.5312 9.35938 10.0938 9.125C9.66146 8.89062 9.17969 8.77344 8.64844 8.77344C8.10677 8.77344 7.61458 8.89583 7.17188 9.14062C6.73438 9.38542 6.39323 9.67188 6.14844 10C6.11198 10.0573 6.09896 10.1198 6.10938 10.1875C6.125 10.25 6.16406 10.3099 6.22656 10.3672L8.05469 12.125C8.19531 12.2656 8.3099 12.362 8.39844 12.4141C8.48698 12.4661 8.57031 12.4922 8.64844 12.4922ZM4.25781 8.39062C4.33594 8.46875 4.42188 8.50521 4.51562 8.5C4.60938 8.49479 4.69531 8.45052 4.77344 8.36719C5.22135 7.86198 5.79167 7.44792 6.48438 7.125C7.17708 6.80208 7.89844 6.64323 8.64844 6.64844C9.40885 6.64323 10.1354 6.80729 10.8281 7.14062C11.5208 7.46875 12.0964 7.88542 12.5547 8.39062C12.6276 8.46875 12.7083 8.50781 12.7969 8.50781C12.8854 8.5026 12.9661 8.46094 13.0391 8.38281L14.2031 7.23438C14.2656 7.17188 14.2995 7.10417 14.3047 7.03125C14.3099 6.95312 14.2865 6.88021 14.2344 6.8125C13.8542 6.34896 13.3776 5.9349 12.8047 5.57031C12.2318 5.20052 11.5911 4.91146 10.8828 4.70312C10.1745 4.48958 9.42969 4.38281 8.64844 4.38281C7.86719 4.38281 7.1224 4.48958 6.41406 4.70312C5.71094 4.91146 5.07292 5.20052 4.5 5.57031C3.92708 5.9349 3.45052 6.34896 3.07031 6.8125C3.01302 6.88021 2.98698 6.95052 2.99219 7.02344C2.9974 7.09635 3.03125 7.16667 3.09375 7.23438L4.25781 8.39062ZM1.13281 5.25781C1.20573 5.33594 1.28906 5.375 1.38281 5.375C1.48177 5.36979 1.5651 5.32812 1.63281 5.25C2.5599 4.27083 3.61979 3.52865 4.8125 3.02344C6.00521 2.51302 7.28385 2.25781 8.64844 2.25781C10.0182 2.25781 11.2995 2.51302 12.4922 3.02344C13.6901 3.53385 14.75 4.27865 15.6719 5.25781C15.7396 5.32552 15.8203 5.35938 15.9141 5.35938C16.0078 5.35938 16.0885 5.32031 16.1562 5.24219L17.1875 4.20312C17.2552 4.14062 17.2891 4.07031 17.2891 3.99219C17.2943 3.90885 17.2708 3.83594 17.2188 3.77344C16.6302 3.04948 15.888 2.40365 14.9922 1.83594C14.0964 1.26302 13.1042 0.815104 12.0156 0.492188C10.9323 0.164062 9.8099 0 8.64844 0C7.48698 0 6.36198 0.164062 5.27344 0.492188C4.1849 0.815104 3.19271 1.26302 2.29688 1.83594C1.40625 2.40365 0.666667 3.04948 0.078125 3.77344C0.0260417 3.83594 0 3.90885 0 3.99219C0.00520833 4.07031 0.0390625 4.14062 0.101562 4.20312L1.13281 5.25781Z" fill="#191919" fill-opacity="0.9"/>
</svg>
